# Blender 4.0.2
# www.blender.org
mtllib creeper.mtl
o body
v 2.076061 0.694351 -0.182284
v 1.920371 0.694019 -0.191598
v 2.075808 0.226914 -0.161346
v 1.920118 0.226581 -0.170660
v 1.901731 0.707962 0.119470
v 2.057421 0.708295 0.128784
v 1.901478 0.240524 0.140408
v 2.057168 0.240857 0.149722
v 2.154074 1.006143 -0.191585
v 1.842694 1.005477 -0.210213
v 2.153906 0.694518 -0.177627
v 1.842525 0.693852 -0.196255
v 1.824055 1.019421 0.100855
v 2.135435 1.020087 0.119483
v 1.823886 0.707796 0.114813
v 2.135267 0.708462 0.133441
v 2.231498 0.227247 -0.152032
v 2.075808 0.226914 -0.161346
v 2.231372 -0.006472 -0.141563
v 2.075681 -0.006805 -0.150877
v 2.066488 0.233885 -0.005812
v 2.222178 0.234218 0.003502
v 2.066362 0.000166 0.004657
v 2.222052 0.000499 0.013971
v 2.222178 0.234218 0.003502
v 2.066488 0.233885 -0.005812
v 2.222052 0.000499 0.013971
v 2.066362 0.000166 0.004657
v 2.057168 0.240857 0.149722
v 2.212859 0.241190 0.159036
v 2.057042 0.007138 0.160191
v 2.212732 0.007471 0.169505
v 1.920118 0.226581 -0.170660
v 1.764428 0.226248 -0.179974
v 1.919991 -0.007138 -0.160191
v 1.764301 -0.007471 -0.169505
v 1.755108 0.233220 -0.024440
v 1.910798 0.233552 -0.015126
v 1.754981 -0.000499 -0.013971
v 1.910672 -0.000166 -0.004657
v 1.910798 0.233552 -0.015126
v 1.755108 0.233220 -0.024440
v 1.910672 -0.000166 -0.004657
v 1.754981 -0.000499 -0.013971
v 1.745788 0.240191 0.131094
v 1.901478 0.240524 0.140408
v 1.745662 0.006472 0.141563
v 1.901352 0.006805 0.150877
vn -0.9982 -0.0021 -0.0597
vn 0.0598 -0.0447 -0.9972
vn 0.9982 0.0021 0.0597
vn -0.0598 0.0447 0.9972
vn 0.0005 0.9990 -0.0447
vn -0.0005 -0.9990 0.0447
vt 0.312500 0.000000
vt 0.437500 0.000000
vt 0.437500 0.375000
vt 0.312500 0.375000
vt 0.250000 0.000000
vt 0.250000 0.375000
vt 0.500000 0.000000
vt 0.625000 0.000000
vt 0.625000 0.375000
vt 0.500000 0.375000
vt 0.437500 0.500000
vt 0.312500 0.500000
vt 0.562500 0.375000
vt 0.562500 0.500000
vt 0.125000 0.500000
vt 0.250000 0.500000
vt 0.250000 0.750000
vt 0.125000 0.750000
vt 0.000000 0.500000
vt 0.000000 0.750000
vt 0.375000 0.500000
vt 0.500000 0.500000
vt 0.500000 0.750000
vt 0.375000 0.750000
vt 0.250000 1.000000
vt 0.125000 1.000000
vt 0.375000 1.000000
vt 0.062500 0.187500
vt 0.125000 0.187500
vt 0.125000 0.375000
vt 0.062500 0.375000
vt 0.000000 0.187500
vt 0.000000 0.375000
vt 0.187500 0.187500
vt 0.250000 0.187500
vt 0.187500 0.375000
vt 0.062500 0.500000
vt 0.187500 0.500000
s 0
usemtl m_1.001
f 4/1/1 7/2/1 5/3/1 2/4/1
f 3/5/2 4/1/2 2/4/2 1/6/2
f 8/7/3 3/8/3 1/9/3 6/10/3
f 7/2/4 8/7/4 6/10/4 5/3/4
f 6/11/5 1/12/5 2/4/5 5/3/5
f 7/13/6 4/3/6 3/11/6 8/14/6
f 12/15/1 15/16/1 13/17/1 10/18/1
f 11/19/2 12/15/2 10/18/2 9/20/2
f 16/21/3 11/22/3 9/23/3 14/24/3
f 15/16/4 16/21/4 14/24/4 13/17/4
f 14/25/5 9/26/5 10/18/5 13/17/5
f 15/24/6 12/17/6 11/25/6 16/27/6
f 20/28/1 23/29/1 21/30/1 18/31/1
f 19/32/2 20/28/2 18/31/2 17/33/2
f 24/34/3 19/35/3 17/6/3 22/36/3
f 23/29/4 24/34/4 22/36/4 21/30/4
f 22/15/5 17/37/5 18/31/5 21/30/5
f 23/36/6 20/30/6 19/15/6 24/38/6
f 28/28/1 31/29/1 29/30/1 26/31/1
f 27/32/2 28/28/2 26/31/2 25/33/2
f 32/34/3 27/35/3 25/6/3 30/36/3
f 31/29/4 32/34/4 30/36/4 29/30/4
f 30/15/5 25/37/5 26/31/5 29/30/5
f 31/36/6 28/30/6 27/15/6 32/38/6
f 36/28/1 39/29/1 37/30/1 34/31/1
f 35/32/2 36/28/2 34/31/2 33/33/2
f 40/34/3 35/35/3 33/6/3 38/36/3
f 39/29/4 40/34/4 38/36/4 37/30/4
f 38/15/5 33/37/5 34/31/5 37/30/5
f 39/36/6 36/30/6 35/15/6 40/38/6
f 44/28/1 47/29/1 45/30/1 42/31/1
f 43/32/2 44/28/2 42/31/2 41/33/2
f 48/34/3 43/35/3 41/6/3 46/36/3
f 47/29/4 48/34/4 46/36/4 45/30/4
f 46/15/5 41/37/5 42/31/5 45/30/5
f 47/36/6 44/30/6 43/15/6 48/38/6
